<svg xmlns="http://www.w3.org/2000/svg" viewBox="0 0 80 75"><title>all</title><path d="M72.31553,37.57711a8.89928,8.89928,0,0,1,3.77217-6.96243,11.33013,11.33013,0,0,0-6.43109-2.04089l-40.41556.25568c-5.37718.034-9.864,3.70515-9.8344,8.3885l0.00658,1.04074c0.02853,4.50989,4.3891,8.29852,9.93974,8.26341l40.41556-.25568a10.66266,10.66266,0,0,0,6.23239-1.94753A9.18644,9.18644,0,0,1,72.31553,37.57711Z" style="fill:#e4cd92"/><path d="M72.48789,37.40255L19.41,37.73833l0.00329,0.52037c0.02853,4.50989,4.3891,8.29852,9.93974,8.2634l40.41555-.25568a10.66266,10.66266,0,0,0,6.23239-1.94753,8.54567,8.54567,0,0,1-3.513-6.91634h0Z" style="fill:#e4cd92"/><path d="M76.08879,30.78813L76.06136,26.4517l-7.979.05048h0l-4.163.02634-48.7415.30835c-6.41792.0406-11.41856,4.75577-11.38125,10.65332l0.00219,0.34691,44.40507-.28092h0l3.6426-.023a6.63717,6.63717,0,0,1,6.37732-6.45852l5.54954-.20857" style="fill:#f78e20"/><path d="M64.03018,44.0477l-5.55064.03511A6.66672,6.66672,0,0,1,52.01992,37.532l-48.22113.30506,0.0011,0.17346C3.8383,44.08156,9.07164,48.732,15.31611,48.69248l48.7415-.30835,4.163-.02634,8.1525-.05157-0.02743-4.33643" style="fill:#f78e20"/><path d="M72.14606,15.78678a8.89928,8.89928,0,0,1,3.77217-6.96243,11.33014,11.33014,0,0,0-6.43109-2.04089l-40.41556.25568c-5.37718.034-9.864,3.70515-9.8344,8.3885l0.00658,1.04074c0.02853,4.50989,4.3891,8.29852,9.93974,8.26341l40.41556-.25568a10.66266,10.66266,0,0,0,6.23239-1.94753C73.739,20.80717,72.16361,18.5621,72.14606,15.78678Z" style="fill:#e4cd92"/><path d="M72.31841,15.61222L19.24047,15.948l0.00329,0.52037c0.02853,4.50989,4.3891,8.29852,9.93974,8.26341l40.41555-.25568a10.66266,10.66266,0,0,0,6.23239-1.94753c-2.09246-1.72141-3.66783-3.96648-3.513-6.91635C72.14606,15.78678,72.31951,15.78568,72.31841,15.61222Z" style="fill:#e4cd92"/><path d="M72.25291,59.17253a8.89928,8.89928,0,0,1,3.77217-6.96243A11.33013,11.33013,0,0,0,69.594,50.16921l-40.41556.25568c-5.37718.034-9.864,3.70515-9.8344,8.3885l0.00658,1.04075c0.02853,4.50989,4.3891,8.29852,9.93974,8.2634l40.41556-.25568a10.6627,10.6627,0,0,0,6.23239-1.94753A9.18643,9.18643,0,0,1,72.25291,59.17253Z" style="fill:#e4cd92"/><path d="M72.42527,58.998l-53.07794.33578,0.00329,0.52037c0.02853,4.50989,4.3891,8.29852,9.93974,8.2634l40.41555-.25568a10.6627,10.6627,0,0,0,6.23239-1.94753,8.54569,8.54569,0,0,1-3.513-6.91635h0Z" style="fill:#e4cd92"/><path d="M76.09278,8.9967l-0.02634-4.163-8.15359-.12188-4.163.02634-48.7415.30835C8.59045,5.08713,3.58981,9.8023,3.62712,15.69985l0.00219,0.34691,44.40507-.28092h0l3.6426-.023a6.63717,6.63717,0,0,1,6.37732-6.45852l5.54954-.20857" style="fill:#90c33e"/><path d="M63.96755,65.64312l-11.7951.07462A6.552,6.552,0,0,1,45.71284,59.167h0l3.81606-.02414a6.79349,6.79349,0,0,1,6.37622-6.632l8.1525-.05157,12.31547-.07791h0l-0.02743-4.33643-8.1525.05157-4.163.02634-48.915.30945c-6.41792.0406-11.41746,4.92923-11.38015,10.82678l0.0011,0.17345L3.73727,59.606C3.77457,65.50352,9.009,70.32741,15.25348,70.2879l48.7415-.30835,4.163-.02634,8.1525-.05157L76.283,65.56521" style="fill:#32a6de"/><path d="M63.8607,22.25737l-5.55064.03511a6.66672,6.66672,0,0,1-6.45962-6.55078l-48.22113.30506,0.0011,0.17346c0.03841,6.071,5.27175,10.72143,11.51622,10.68193l48.74151-.30835,4.163-.02634,7.979-.05048-0.02743-4.33643" style="fill:#90c33e"/><path d="M27.91334,15.89314l-8.15249.05157c0.0395,6.24446,3.71173,10.90477,6.48705,10.88721l10.06053-.06364C31.62617,26.97137,27.95175,21.96415,27.91334,15.89314Z" style="fill:#e44637"/><path d="M36.34362,4.91156l-8.1525.05157c-4.68335.02963-8.46868,4.91057-8.43028,10.98158l8.15249-.05157C27.87493,9.82213,31.48681,4.94228,36.34362,4.91156Z" style="fill:#e44637"/><path d="M63.96755,65.64312l-5.55064.03511c-6.24446.0395-9.04063-3.23863-9.06148-6.53432l-45.61927.2886L3.73726,59.606C3.77567,65.677,9.009,70.32741,15.25348,70.2879L63.995,69.97956l4.163-.02634,8.1525-.05157L76.283,65.56521" style="fill:#32a6de"/></svg>