<?xml version="1.0" encoding="UTF-8"?>
<!-- Created with Inkscape (http://www.inkscape.org/) -->
<svg width="96" height="96" version="1.0" xmlns="http://www.w3.org/2000/svg" xmlns:cc="http://creativecommons.org/ns#" xmlns:dc="http://purl.org/dc/elements/1.1/" xmlns:rdf="http://www.w3.org/1999/02/22-rdf-syntax-ns#">
<defs>
<clipPath id="clipPath3720">
<path d="m-100-74v96h96v-96h-96zm48.25 20.375c5.3103 0 10.283 1.5321 14.5 4.125l-4.75 7.875c-2.8172-1.7428-6.188-2.75-9.75-2.75-9.6302 0-17.523 7.3449-18.375 16.75h9.875l-13.875 20.75-13.875-20.75h8.625c0.89419-14.496 12.905-26 27.625-26zm21.875 8 13.875 20.75h-8.625c-0.89419 14.496-12.905 26-27.625 26-5.3103 0-10.283-1.5321-14.5-4.125l4.75-7.875c2.8172 1.7428 6.188 2.75 9.75 2.75 9.6302 0 17.523-7.3449 18.375-16.75h-9.875l13.875-20.75z" color="#000000" fill="#f00" opacity=".3"/>
</clipPath>
<filter id="filter3724" color-interpolation-filters="sRGB">
<feGaussianBlur stdDeviation="0.950625"/>
</filter>
</defs>
<metadata>
<rdf:RDF>
<cc:Work rdf:about="">
<dc:format>image/svg+xml</dc:format>
<dc:type rdf:resource="http://purl.org/dc/dcmitype/StillImage"/>
<dc:title/>
</cc:Work>
</rdf:RDF>
</metadata>
<g transform="translate(0,74)">
<path transform="translate(100)" d="m-51.75-53.625c-14.72-3e-6 -26.731 11.504-27.625 26h-8.625l13.875 20.75 13.875-20.75h-9.875c0.85226-9.4051 8.7448-16.75 18.375-16.75 3.562 1e-6 6.9328 1.0072 9.75 2.75l4.75-7.875c-4.2173-2.5929-9.1897-4.125-14.5-4.125zm21.875 8-13.875 20.75h9.875c-0.85226 9.4051-8.7448 16.75-18.375 16.75-3.562 0-6.9328-1.0072-9.75-2.75l-4.75 7.875c4.2173 2.5929 9.1897 4.125 14.5 4.125 14.72 4e-6 26.731-11.504 27.625-26h8.625l-13.875-20.75z" clip-path="url(#clipPath3720)" fill="none" filter="url(#filter3724)" opacity=".2" stroke="#fff" stroke-width="4"/>
<path d="m48.25-53.625c-14.72-3e-6 -26.731 11.504-27.625 26h-8.625l13.875 20.75 13.875-20.75h-9.875c0.85226-9.4051 8.7448-16.75 18.375-16.75 3.562 1e-6 6.9328 1.0072 9.75 2.75l4.75-7.875c-4.2173-2.5929-9.1897-4.125-14.5-4.125zm21.875 8-13.875 20.75h9.875c-0.85226 9.4051-8.7448 16.75-18.375 16.75-3.562 0-6.9328-1.0072-9.75-2.75l-4.75 7.875c4.2173 2.5929 9.1897 4.125 14.5 4.125 14.72 4e-6 26.731-11.504 27.625-26h8.625l-13.875-20.75z" fill="#00a2ff"/>
<rect x="-100" y="-74" width="96" height="96" color="#000000" fill="#f00" opacity=".3"/>
<path transform="translate(0,-74)" d="m48.25 20.375c-14.72-3e-6 -26.731 11.504-27.625 26h-8.625l13.875 20.75 13.875-20.75h-9.875c0.85226-9.4051 8.7448-16.75 18.375-16.75 3.562 1e-6 6.9328 1.0072 9.75 2.75l4.75-7.875c-4.2173-2.5929-9.1897-4.125-14.5-4.125zm0 1.9375c4.2535 0 8.1763 1.225 11.719 3.0625l-2.75 4.5312c-2.7319-1.3391-5.7398-2.2187-8.9688-2.2188-10.623 0-19.371 8.1074-20.312 18.5a1.9517 1.9517 0 0 0 1.9375 2.125h6.2188l-10.219 15.281-10.219-15.281h4.9688a1.9517 1.9517 0 0 0 1.9375 -1.8125c0.83199-13.488 11.984-24.188 25.688-24.188zm21.875 6.0625-13.875 20.75h9.875c-0.85226 9.4051-8.7448 16.75-18.375 16.75-3.562 0-6.9328-1.0072-9.75-2.75l-4.75 7.875c4.2173 2.5929 9.1897 4.125 14.5 4.125 14.72 4e-6 26.731-11.504 27.625-26h8.625l-13.875-20.75zm0 3.5312 10.219 15.281h-4.9688a1.9517 1.9517 0 0 0 -1.9375 1.8125c-0.83198 13.488-11.984 24.188-25.688 24.188-4.2535 0-8.1763-1.225-11.719-3.0625l2.75-4.5312c2.7319 1.3391 5.7398 2.2188 8.9688 2.2188 10.623 0 19.371-8.1074 20.312-18.5a1.9517 1.9517 0 0 0 -1.9375 -2.125h-6.2188l10.219-15.281z"/>
</g>
</svg>
