<?xml version="1.0" encoding="UTF-8" standalone="no"?>
<!-- Generator: Adobe Illustrator 19.2.0, SVG Export Plug-In . SVG Version: 6.00 Build 0)  -->

<svg
   xmlns:dc="http://purl.org/dc/elements/1.1/"
   xmlns:cc="http://creativecommons.org/ns#"
   xmlns:rdf="http://www.w3.org/1999/02/22-rdf-syntax-ns#"
   xmlns:svg="http://www.w3.org/2000/svg"
   xmlns="http://www.w3.org/2000/svg"
   xmlns:sodipodi="http://sodipodi.sourceforge.net/DTD/sodipodi-0.dtd"
   xmlns:inkscape="http://www.inkscape.org/namespaces/inkscape"
   version="1.1"
   id="Layer_1"
   x="0px"
   y="0px"
   viewBox="0 0 48 48"
   xml:space="preserve"
   inkscape:version="0.91 r13725"
   sodipodi:docname="font.svg"
   width="48"
   height="48"><metadata
     id="metadata23"><rdf:RDF><cc:Work
         rdf:about=""><dc:format>image/svg+xml</dc:format><dc:type
           rdf:resource="http://purl.org/dc/dcmitype/StillImage" /><dc:title></dc:title></cc:Work></rdf:RDF></metadata><defs
     id="defs21" /><sodipodi:namedview
     pagecolor="#ffffff"
     bordercolor="#666666"
     borderopacity="1"
     objecttolerance="10"
     gridtolerance="10"
     guidetolerance="10"
     inkscape:pageopacity="0"
     inkscape:pageshadow="2"
     inkscape:window-width="1364"
     inkscape:window-height="722"
     id="namedview19"
     showgrid="false"
     inkscape:zoom="9.8333333"
     inkscape:cx="29.268896"
     inkscape:cy="23.24036"
     inkscape:window-x="0"
     inkscape:window-y="22"
     inkscape:window-maximized="0"
     inkscape:current-layer="Layer_1" /><style
     type="text/css"
     id="style3">
	.st0{fill:#72A0BA;}
	.st1{fill:#6A8791;}
	.st2{fill:#E1F5FE;}
</style><g
     id="g3351"
     transform="matrix(1.9905213,0,0,1.9905213,0.01421821,0.11374408)"><path
       id="path5"
       d="m 20.3,22.5 -16.7,0 C 2.4,22.5 1.5,21.4 1.5,20 L 1.5,4 C 1.5,2.6 2.4,1.5 3.6,1.5 l 16.9,0 c 1.2,0 2.1,1.1 2.1,2.5 l 0,16.1 c -0.1,1.3 -1.1,2.4 -2.3,2.4 z"
       class="st0"
       inkscape:connector-curvature="0"
       style="fill:#72a0ba" /><g
       id="g7"><path
         id="path9"
         d="m 15.5,8.4 0,0.3 C 15.5,9.2 15.3,9.5 15,9.5 14.9,9.5 14.7,9.3 14.4,8.8 14.1,8.3 13.8,8 13.5,7.8 13.2,7.6 12.7,7.5 12.3,7.5 c -0.5,0 -0.8,0.1 -0.9,0.2 -0.3,0.2 -0.4,0.5 -0.5,0.8 0,0.4 -0.1,1.9 -0.1,4.5 0,2.6 0,4.2 0.1,4.5 0.1,0.3 0.4,0.8 0.8,1 0.4,0.3 0.6,0.5 0.6,0.7 0,0.2 -0.3,0.3 -0.8,0.3 l -0.5,0 -0.7,0 c -0.2,0 -0.4,0 -0.7,0 l -0.8,0 C 8,19.5 7.5,19.5 7.3,19.4 7.1,19.4 7,19.2 7,19 7,18.9 7.2,18.7 7.6,18.4 8,18.1 8.3,17.8 8.4,17.4 8.5,17 8.6,15.4 8.6,12.7 8.6,10 8.6,8.5 8.5,8.2 8.5,7.8 8.1,7.6 7.5,7.6 6.9,7.6 6.5,7.7 6.1,7.9 5.6,8.1 5.3,8.4 5,8.8 4.8,9.3 4.5,9.6 4.2,9.6 4,9.6 3.9,9.4 3.9,9.1 l 0,-0.3 C 3.9,7.5 4,6.7 4.3,6.5 4.4,6.5 6.2,6.4 9.9,6.4 l 4.4,0 c 0.5,0 0.8,0.1 0.9,0.4 0.2,0.3 0.3,0.7 0.3,1.6 z"
         class="st1"
         inkscape:connector-curvature="0"
         style="fill:#6a8791" /><path
         id="path11"
         d="m 20.4,18.3 1.4,-0.2 c 0.2,0 0.3,0.1 0.3,0.4 0,0.3 -0.3,0.5 -0.8,0.8 -0.5,0.3 -0.9,0.4 -1.5,0.4 l -0.2,0 c -0.4,0 -0.8,-0.1 -1.1,-0.3 -0.4,-0.2 -0.6,-0.5 -0.8,-0.8 -0.3,-0.6 -0.4,-1.6 -0.4,-3.2 0,-1.5 -0.1,-2.5 -0.2,-2.9 -0.1,-0.4 -0.3,-0.7 -0.5,-0.8 -0.3,-0.3 -0.5,-0.4 -0.5,-0.5 0,-0.2 0.1,-0.3 0.3,-0.4 0.5,-0.3 0.7,-0.5 0.8,-0.5 0,0 0.3,-0.6 0.8,-1.5 0.2,-0.5 0.5,-0.8 0.8,-0.8 0.3,0 0.5,0.1 0.6,0.3 0,0.1 0.1,0.3 0.2,0.8 0.1,0.5 0.2,0.8 0.4,0.9 0.2,0.1 0.5,0.3 1,0.4 0.6,0.1 0.8,0.3 0.8,0.6 0,0.3 -0.3,0.4 -0.8,0.6 -0.6,0.1 -0.9,0.3 -1,0.5 -0.2,0.3 -0.3,1.2 -0.3,2.7 0,1.5 0.1,2.5 0.2,2.8 -0.2,0.4 0.1,0.7 0.5,0.7 z"
         class="st1"
         inkscape:connector-curvature="0"
         style="fill:#6a8791" /></g><g
       id="g13"><path
         id="path15"
         d="m 14.5,7.4 0,0.3 C 14.5,8.2 14.3,8.5 14,8.5 13.9,8.5 13.7,8.3 13.4,7.8 13.1,7.3 12.7,7 12.5,6.9 12.2,6.7 11.7,6.6 11.3,6.6 10.8,6.6 10.5,6.7 10.4,6.8 10,6.9 9.9,7.2 9.8,7.5 9.8,7.9 9.7,9.4 9.7,12 c 0,2.6 0,4.2 0.1,4.5 0.1,0.3 0.4,0.8 0.8,1 0.4,0.3 0.6,0.5 0.6,0.7 0,0.2 -0.3,0.3 -0.8,0.3 l -0.4,0 -0.6,0 c -0.2,0 -0.4,0 -0.7,0 l -0.9,0 C 7,18.5 6.5,18.5 6.3,18.4 6.1,18.4 6,18.2 6,18 6,17.9 6.2,17.7 6.6,17.4 7,17.1 7.3,16.8 7.4,16.4 7.5,16 7.6,14.4 7.6,11.7 7.6,9 7.6,7.5 7.5,7.2 7.5,6.8 7.1,6.6 6.5,6.6 5.9,6.6 5.5,6.7 5.1,6.9 4.6,7.1 4.3,7.4 4,7.8 3.8,8.3 3.5,8.6 3.2,8.6 3,8.6 2.9,8.4 2.9,8.1 l 0,-0.3 C 2.9,6.5 3,5.7 3.3,5.5 3.4,5.5 5.2,5.4 8.9,5.4 l 4.4,0 c 0.5,0 0.8,0.1 0.9,0.4 0.2,0.3 0.3,0.7 0.3,1.6 z"
         class="st2"
         inkscape:connector-curvature="0"
         style="fill:#e1f5fe" /><path
         id="path17"
         d="m 19.4,17.3 1.4,-0.2 c 0.2,0 0.3,0.1 0.3,0.4 0,0.3 -0.3,0.5 -0.8,0.8 -0.5,0.3 -0.9,0.4 -1.5,0.4 l -0.2,0 c -0.4,0 -0.8,-0.1 -1.1,-0.3 -0.4,-0.2 -0.6,-0.5 -0.8,-0.8 -0.3,-0.6 -0.4,-1.6 -0.4,-3.2 0,-1.5 -0.1,-2.5 -0.2,-2.9 -0.1,-0.4 -0.3,-0.7 -0.5,-0.8 -0.3,-0.3 -0.5,-0.4 -0.5,-0.5 0,-0.2 0.1,-0.3 0.3,-0.4 0.5,-0.3 0.7,-0.5 0.8,-0.5 0,0 0.3,-0.6 0.8,-1.5 0.2,-0.5 0.5,-0.8 0.8,-0.8 0.3,0 0.5,0.1 0.6,0.3 0,0.1 0.1,0.3 0.2,0.8 0.1,0.5 0.2,0.8 0.4,0.9 0.2,0.1 0.5,0.3 1,0.4 0.6,0.1 0.8,0.3 0.8,0.6 0,0.3 -0.3,0.4 -0.8,0.6 -0.6,0.1 -0.9,0.3 -1,0.5 -0.2,0.3 -0.3,1.2 -0.3,2.7 0,1.5 0.1,2.5 0.2,2.8 -0.2,0.4 0.1,0.7 0.5,0.7 z"
         class="st2"
         inkscape:connector-curvature="0"
         style="fill:#e1f5fe" /></g></g></svg>