<svg xmlns="http://www.w3.org/2000/svg" viewBox="0 0 80 80"><title>all</title><path d="M69.4771,77.60868H13.09716c-3.84391,0-7.45448-.00108-9.62791-3.96383C1.86106,70.7127,2.25391,67.091,2.25391,63.85534V14.92415c0-3.87-.18281-8.01624,3.11783-10.786,2.49619-2.0947,5.93832-1.6192,8.97335-1.6192H64.0275c2.45381,0,5.35218-.391,7.77326.19572,5.10612,1.23735,5.90045,6.53457,5.90045,10.95567V62.11986a64.90469,64.90469,0,0,1-.0554,7.44013C77.1683,73.64421,73.793,77.60868,69.4771,77.60868Z" style="fill:#6b8892"/><path d="M52.31374,27.19128c0,1.17635.18864,3.19252-1.12961,3.77828-1.63093.7247-2.82452-2.4825-3.51881-3.43787A7.81315,7.81315,0,0,0,42.57484,24.124c-1.90043-.33347-4.34346-0.36251-5.68249,1.25649C35.245,27.37225,35.74,30.91609,35.665,33.31595c-0.16489,5.27938-.16535,10.56019-0.15347,15.84161,0.00727,3.2329-.37485,6.86519.25007,10.06308a6.35155,6.35155,0,0,0,2.152,3.54173c0.85317,0.70143,4.02319,2.32888,2.52413,3.70018-1.1904,1.08895-5.54578.419-7.14966,0.419-3.09855,0-6.50984.375-9.55767-.15085-1.42392-.24565-2.32974-1.181-1.27384-2.44153,1.48073-1.76765,3.80881-2.47694,4.46963-4.91659,0.67411-2.48873.514-5.39815,0.59345-7.94585,0.16619-5.33238.13515-10.67073,0.11367-16.005a57.41811,57.41811,0,0,0-.27322-8.62188c-0.66071-4.18754-7.17157-2.322-9.65063-.92443a8.70391,8.70391,0,0,0-2.29131,1.93088c-0.72923.84219-1.02171,1.93188-1.78337,2.74388-1.34882,1.438-2.693,1.02147-2.79925-.96747a34.03927,34.03927,0,0,1,.21687-5.85526c0.116-.95035.25334-2.86807,1.2799-3.3315a5.07193,5.07193,0,0,1,1.50249-.06018q1.902-.073,3.80473-0.12218c7.317-.19445,14.63642-0.17373,21.95529-0.17373,2.71415,0,5.43263-.04556,8.14644,0,1.50421,0.02525,2.6797.08139,3.4997,1.43028C52.28042,23.18,52.31374,25.24276,52.31374,27.19128Z" style="fill:#384850"/><path d="M69.83467,62.59073c1.40092-.20013,5.9213-1.7372,6.06379.47593,0.132,2.04955-3.32948,3.54976-4.8881,4.06663a11.26768,11.26768,0,0,1-6.42144.11314c-4.56185-1.44458-5.43623-5.80811-5.70649-9.99277-0.31187-4.829.17668-9.7661-.67845-14.55467-0.413-2.31272-1.53655-3.2115-3.111-4.74933-1.60132-1.56407,1.00572-2.53479,2.24978-3.36369a4.90823,4.90823,0,0,0,2.02087-2.47754c0.61626-1.1683,1.28982-2.31061,1.88935-3.48686a5.21971,5.21971,0,0,1,1.97523-2.61089c1.90425-.94942,2.92839.513,3.36249,2.08712,0.57949,2.1013.50787,4.16306,2.6053,5.23435,1.51018,0.77134,4.72281.76279,5.49268,2.42117,1.0135,2.18319-2.7272,2.78761-3.98388,3.16766-4.34829,1.315-3.3828,8.00685-3.372,11.51494a61.38762,61.38762,0,0,0,.4065,8.06044C67.96449,60.15251,67.42678,62.59073,69.83467,62.59073Z" style="fill:#384850"/><path d="M48.738,23.61558c0,1.17634.18864,3.19252-1.12961,3.77828-1.61943.71959-2.75151-2.39984-3.48162-3.33489-2.33135-2.98578-7.1348-4.53313-10.53732-2.42259-2.30341,1.42878-1.74893,4.86216-1.82879,7.21687-0.17459,5.14791-.19081,10.29633-0.18451,15.44669,0.0044,3.59651-.27512,7.39326.20878,10.97054a6.10293,6.10293,0,0,0,1.486,3.201c0.73484,0.85956,4.25563,2.522,3.61766,4.01306-0.63658,1.48779-5.78677.82129-7.26773,0.82129-3.07355,0-6.44268.37075-9.46613-.15085-1.42392-.24565-2.32974-1.181-1.27384-2.44153,1.48073-1.76765,3.80881-2.47694,4.46963-4.91659,0.67411-2.48872.514-5.39815,0.59345-7.94585,0.1662-5.33238.13515-10.67073,0.11367-16.005a57.41824,57.41824,0,0,0-.27322-8.62188c-0.66071-4.18754-7.17157-2.322-9.65063-.92443a8.7039,8.7039,0,0,0-2.29131,1.93088c-0.72923.84219-1.02171,1.93188-1.78337,2.74388-1.34882,1.438-2.693,1.02147-2.79925-.96747a34.03927,34.03927,0,0,1,.21687-5.85526c0.116-.95035.25334-2.86807,1.2799-3.3315a5.07193,5.07193,0,0,1,1.50249-.06018q1.902-.073,3.80473-0.12218c7.317-.19445,14.63642-0.17373,21.95529-0.17373,2.71415,0,5.43263-.04556,8.14644,0,1.50421,0.02525,2.6797.08139,3.4997,1.43028C48.70472,19.60426,48.738,21.66706,48.738,23.61558Z" style="fill:#dce9f3"/><path d="M66.259,59.015c1.40092-.20013,5.9213-1.7372,6.06379.47593,0.132,2.04955-3.32948,3.54976-4.8881,4.06663a11.26768,11.26768,0,0,1-6.42144.11314c-4.56185-1.44458-5.43623-5.80811-5.70649-9.99277-0.31187-4.829.17668-9.7661-.67845-14.55467-0.413-2.31272-1.53655-3.2115-3.111-4.74933-1.60132-1.56407,1.00573-2.53479,2.24979-3.36369a4.90822,4.90822,0,0,0,2.02087-2.47754c0.61626-1.1683,1.28982-2.31061,1.88935-3.48686A5.21969,5.21969,0,0,1,59.65251,22.435c1.90425-.94942,2.92839.513,3.36249,2.08712,0.57949,2.1013.50787,4.16306,2.6053,5.23435,1.51018,0.77134,4.72281.76279,5.49268,2.42117,1.0135,2.18319-2.7272,2.78761-3.98388,3.16766-4.34829,1.315-3.3828,8.00685-3.372,11.51494a61.3876,61.3876,0,0,0,.4065,8.06044C64.38879,56.57681,63.85108,59.015,66.259,59.015Z" style="fill:#dce9f3"/></svg>