<svg xmlns="http://www.w3.org/2000/svg" viewBox="0 0 80 80"><title>all</title><path d="M66.99337,27.47507a26.992,26.992,0,0,0-53.8207-2.9803,26.23128,26.23128,0,0,0,9.64214,23.49177,12.72771,12.72771,0,0,1,4.73342,9.99277v0.70125H52.61781V58.50525a13.70894,13.70894,0,0,1,4.5581-9.99277A27.65128,27.65128,0,0,0,66.99337,27.47507Z" style="fill:#f9c02d"/><path d="M53.66968,23.61821l-6.31122-4.20748a2.59307,2.59307,0,0,0-2.27905,0l-5.25935,3.33092-5.084-3.33092a2.59307,2.59307,0,0,0-2.27905,0l-6.31122,4.20748a2.409,2.409,0,0,0-.87656,1.40249,3.16092,3.16092,0,0,0,.35062,1.75312l7.889,9.81746V58.68056h4.20748V35.71472a3.25018,3.25018,0,0,0-.35062-1.22718l-6.48653-8.59027,3.15561-2.10374,5.084,3.33092a2.59306,2.59306,0,0,0,2.27905,0l5.084-3.33092,3.15561,2.10374-6.83716,8.59027a3.25018,3.25018,0,0,0-.35062,1.22718V58.68056H46.6572V36.59128l7.889-9.81746a1.54181,1.54181,0,0,0,.35062-1.75312C54.37093,24.49477,54.19561,23.79352,53.66968,23.61821Z" style="fill:#fef5a0"/><circle cx="39.99537" cy="73.23143" r="6.31122" style="fill:#5f6bb2"/><path d="M44.20285,75.33517h-8.415a8.41682,8.41682,0,0,1-8.415-8.415V56.57681H52.44249V66.92021A8.26973,8.26973,0,0,1,44.20285,75.33517Z" style="fill:#a1a9d5"/><path d="M52.4425,66.92021l-24.193,3.33093a8.48053,8.48053,0,0,0,3.33092,3.68154L51.21531,71.303A7.17536,7.17536,0,0,0,52.4425,66.92021Z" style="fill:#5f6bb2"/><polygon points="27.548 62.187 27.548 66.394 52.442 62.888 52.442 58.681 27.548 62.187" style="fill:#5f6bb2"/></svg>