<svg xmlns="http://www.w3.org/2000/svg" viewBox="0 0 80 80"><title>all</title><rect x="60.02438" y="47.69577" width="7.56397" height="32.14686" transform="translate(-26.40318 63.79548) rotate(-45)" style="fill:#616262"/><circle cx="32.41418" cy="32.40047" r="30.26044" style="fill:#616262"/><rect x="63.07454" y="55.33273" width="7.56397" height="23.2592" transform="translate(-27.7677 66.88751) rotate(-45)" style="fill:#384850"/><circle cx="32.41418" cy="32.40047" r="24.58661" style="fill:#71b3e2"/><path d="M45.464,21.43106a17.09537,17.09537,0,0,0-26.09963,0,1.877,1.877,0,1,0,2.83692,2.45866,13.394,13.394,0,0,1,20.4258,0,2.33478,2.33478,0,0,0,1.513.75651,2.02773,2.02773,0,0,0,1.13477-.37826A2.2867,2.2867,0,0,0,45.464,21.43106Z" style="fill:#beddf4"/></svg>