<?xml version="1.0" encoding="UTF-8" standalone="no"?>
<!-- Generator: Adobe Illustrator 19.2.0, SVG Export Plug-In . SVG Version: 6.00 Build 0)  -->

<svg
   xmlns:dc="http://purl.org/dc/elements/1.1/"
   xmlns:cc="http://creativecommons.org/ns#"
   xmlns:rdf="http://www.w3.org/1999/02/22-rdf-syntax-ns#"
   xmlns:svg="http://www.w3.org/2000/svg"
   xmlns="http://www.w3.org/2000/svg"
   xmlns:sodipodi="http://sodipodi.sourceforge.net/DTD/sodipodi-0.dtd"
   xmlns:inkscape="http://www.inkscape.org/namespaces/inkscape"
   version="1.1"
   id="Layer_1"
   x="0px"
   y="0px"
   viewBox="0 0 48 48"
   xml:space="preserve"
   inkscape:version="0.91 r13725"
   sodipodi:docname="on-top.svg"
   width="48"
   height="48"><metadata
     id="metadata17"><rdf:RDF><cc:Work
         rdf:about=""><dc:format>image/svg+xml</dc:format><dc:type
           rdf:resource="http://purl.org/dc/dcmitype/StillImage" /><dc:title></dc:title></cc:Work></rdf:RDF></metadata><defs
     id="defs15" /><sodipodi:namedview
     pagecolor="#ffffff"
     bordercolor="#666666"
     borderopacity="1"
     objecttolerance="10"
     gridtolerance="10"
     guidetolerance="10"
     inkscape:pageopacity="0"
     inkscape:pageshadow="2"
     inkscape:window-width="1364"
     inkscape:window-height="722"
     id="namedview13"
     showgrid="false"
     inkscape:zoom="9.8333333"
     inkscape:cx="15.218507"
     inkscape:cy="21.721081"
     inkscape:window-x="0"
     inkscape:window-y="22"
     inkscape:window-maximized="0"
     inkscape:current-layer="Layer_1" /><style
     type="text/css"
     id="style3">
	.st0{fill:#7A7A7A;}
	.st1{fill:#3190DD;}
	.st2{fill:#51B5ED;}
</style><g
     id="g3345"
     transform="matrix(1.9622184,0,0,1.9622184,-1.7437048,-46.243443)"><path
       style="fill:#7a7a7a"
       inkscape:connector-curvature="0"
       id="path5"
       d="m 4.6,46.1 0.5,0.4 5.3,-6.7 C 9.8,39.4 9.7,39.3 9.1,38.9 l -4.5,7.2 z"
       class="st0" /><path
       style="fill:#3190dd"
       inkscape:connector-curvature="0"
       id="path7"
       d="M 9.2,34.1 5.9,34.3 5,35.5 c -0.1,0.2 0,0.5 0.2,0.6 l 3.7,2.6 0.2,0.1 c 0.6,0.4 0.7,0.5 1.3,0.9 l 0.2,0.1 3.7,2.6 c 0.2,0.2 0.5,0.1 0.7,-0.1 l 0.9,-1.2 -1,-3.1"
       class="st1" /><polyline
       transform="translate(0,24)"
       style="fill:#51b5ed"
       id="polyline9"
       points="13.3,3.1 9.2,10.1 14.8,13.9 19.9,7.7 "
       class="st2" /><path
       style="fill:#3190dd"
       inkscape:connector-curvature="0"
       id="path11"
       d="m 19.9,31.7 0.6,0.4 1,-1.1 c 0.2,-0.2 0.2,-0.6 -0.1,-0.7 L 14.1,25.2 C 13.9,25 13.5,25.1 13.4,25.4 l -0.7,1.3 0.6,0.4"
       class="st1" /></g></svg>