<svg xmlns="http://www.w3.org/2000/svg" viewBox="0 0 80 80"><title>all</title><path d="M74.93908,13.132L65.36735,3.56026a4.08025,4.08025,0,0,0-5.3736,0L55.78827,7.69891,70.77932,22.69l4.15976-4.18437A4.08025,4.08025,0,0,0,74.93908,13.132Z" style="fill:#e57473"/><rect x="1.30334" y="34.89238" width="59.10906" height="10.57918" transform="translate(-19.37488 33.58883) rotate(-45)" style="fill:#f8981d"/><rect x="8.78395" y="42.37299" width="59.10906" height="10.57918" transform="translate(-22.47345 41.06944) rotate(-45)" style="fill:#dc8027"/><polygon points="48.022 15.55 55.788 7.699 63.303 15.213 55.536 23.064 48.022 15.55" style="fill:#b0bec5"/><polygon points="55.499 23.026 63.265 15.176 70.779 22.69 63.013 30.541 55.499 23.026" style="fill:#98a5aa"/><polygon points="6.219 57.34 1.052 77.447 21.181 72.301 6.219 57.34" style="fill:#fdc113"/><polygon points="3.568 67.659 1.052 77.447 10.861 74.939 3.568 67.659" style="fill:#384850"/></svg>