<svg xmlns="http://www.w3.org/2000/svg" viewBox="0 0 80 80"><title>all</title><path d="M8.76455,77.77l1.83313,1.4665L30.22677,54.44286c-2.19976-1.4665-2.59429-1.85246-4.79405-3.319Z" style="fill:#7b7b7b"/><path d="M25.62936,33.77478L13.53069,34.508l-3.29964,4.39952a1.76322,1.76322,0,0,0,.73325,2.19976l33.363,23.09747c0.73325,0.73326,1.83313.36663,2.56638-.36663l3.29964-4.39952L46.52707,48.07321" style="fill:#3f8ecc"/><polyline points="40.661 8.111 25.629 33.775 46.527 48.073 64.858 24.976" style="fill:#58b4e5"/><path d="M64.85839,24.97574l2.19976,1.4665,3.66626-4.03289a1.54959,1.54959,0,0,0-.36663-2.56638L43.59406,1.145a1.62249,1.62249,0,0,0-2.56638.73325L38.46129,6.64442,40.661,8.11093" style="fill:#3f8ecc"/></svg>