<?xml version="1.0" encoding="iso-8859-1"?>
<!-- Generator: Adobe Illustrator 19.0.0, SVG Export Plug-In . SVG Version: 6.00 Build 0)  -->
<svg version="1.1" id="Layer_1" xmlns="http://www.w3.org/2000/svg" xmlns:xlink="http://www.w3.org/1999/xlink" x="0px" y="0px"
	 viewBox="0 0 512 512" style="enable-background:new 0 0 512 512;" xml:space="preserve">
<path style="fill:#FFBD66;" d="M259.011,22.261L105.968,153.006l33.391,200.348c1.342,8.048,8.304,13.951,16.467,13.951h200.348
	c8.163,0,15.125-5.902,16.467-13.951l33.391-200.348L259.011,22.261z"/>
<path style="fill:#FFB24D;" d="M256.001,24.833v342.471h100.174c8.163,0,15.125-5.902,16.467-13.951l33.391-200.348L259.011,22.261
	L256.001,24.833z"/>
<path style="fill:#ACABB1;" d="M256.001,512c-9.223,0-16.696-7.473-16.696-16.696V350.609c0-9.223,7.473-16.696,16.696-16.696
	c9.223,0,16.696,7.473,16.696,16.696v144.696C272.696,504.527,265.223,512,256.001,512z"/>
<path style="fill:#A1A2B3;" d="M272.696,495.305V350.609c0-9.223-7.473-16.696-16.696-16.696V512
	C265.223,512,272.696,504.527,272.696,495.305z"/>
<path style="fill:#997B57;" d="M422.957,367.305H89.044c-9.223,0-16.696-7.473-16.696-16.696c0-9.223,7.473-16.696,16.696-16.696
	h333.913c9.223,0,16.696,7.473,16.696,16.696C439.653,359.832,432.18,367.305,422.957,367.305z"/>
<path style="fill:#806749;" d="M422.957,333.913H256.001v33.391h166.957c9.223,0,16.696-7.473,16.696-16.696
	C439.653,341.386,432.18,333.913,422.957,333.913z"/>
<path style="fill:#A6673A;" d="M256.001,233.739c-27.619,0-50.087-22.468-50.087-50.087s22.468-50.087,50.087-50.087
	s50.087,22.468,50.087,50.087S283.62,233.739,256.001,233.739z"/>
<path style="fill:#99522E;" d="M306.088,183.652c0-27.619-22.468-50.087-50.087-50.087v100.174
	C283.62,233.739,306.088,211.271,306.088,183.652z"/>
<path style="fill:#E6563A;" d="M431.305,208.696c-4.272,0-8.544-1.631-11.804-4.892L256.001,40.305L92.5,203.804
	c-6.521,6.521-17.087,6.521-23.609,0c-6.521-6.516-6.521-17.092,0-23.609L244.196,4.891c6.521-6.521,17.087-6.521,23.609,0
	l175.304,175.304c6.521,6.516,6.521,17.092,0,23.609C439.849,207.065,435.577,208.696,431.305,208.696z"/>
<path style="fill:#D9472B;" d="M419.501,203.804c3.261,3.261,7.533,4.892,11.804,4.892s8.544-1.631,11.804-4.892
	c6.521-6.516,6.521-17.092,0-23.609L267.805,4.891C264.544,1.631,260.273,0,256.001,0v40.304L419.501,203.804z"/>
<circle style="fill:#FFE9CC;" cx="256.001" cy="283.826" r="16.696"/>
<path style="fill:#FFDEB3;" d="M272.696,283.826c0-9.22-7.475-16.696-16.696-16.696v33.391
	C265.221,300.522,272.696,293.047,272.696,283.826z"/>
<g>
</g>
<g>
</g>
<g>
</g>
<g>
</g>
<g>
</g>
<g>
</g>
<g>
</g>
<g>
</g>
<g>
</g>
<g>
</g>
<g>
</g>
<g>
</g>
<g>
</g>
<g>
</g>
<g>
</g>
</svg>
