<svg xmlns="http://www.w3.org/2000/svg" viewBox="0 0 80 80"><title>all</title><path d="M61.6284,49.44137l-0.66806,1.50313a23.14523,23.14523,0,0,1-11.19,11.023,20.75853,20.75853,0,0,1-17.53654.167A27.059,27.059,0,0,1,19.20667,49.27435l-1.50313.66806h0l-4.34238,2.00418h0l-3.00626,1.50313A36.151,36.151,0,0,0,28.89352,71.4873a31.51407,31.51407,0,0,0,25.38623-.334A32.59571,32.59571,0,0,0,69.97912,55.45389l0.66806-1.50313Z" style="fill:#3575bb"/><polygon points="69.311 38.752 51.273 51.613 76.159 60.631 69.311 38.752" style="fill:#3575bb"/><path d="M68.977,25.89231l1.50313-.66806A33.5108,33.5108,0,0,0,51.60752,8.02174a33.1,33.1,0,0,0-25.55324,1.1691A33.53362,33.53362,0,0,0,9.68684,25.72529L9.01878,27.22842l9.01879,4.00835,0.66806-1.50313a23.4477,23.4477,0,0,1,11.524-11.524,22.92378,22.92378,0,0,1,17.87057-.83507A23.3466,23.3466,0,0,1,61.29437,29.39962l1.50313-.66806h0l1.00209-.501,0.501-.167h0L68.977,25.89231h0Z" style="fill:#3575bb"/><polygon points="3.841 19.713 10.689 41.592 28.559 28.565 3.841 19.713" style="fill:#3575bb"/></svg>