<?xml version="1.0" encoding="UTF-8" standalone="no"?>
<!-- Generator: Adobe Illustrator 19.2.0, SVG Export Plug-In . SVG Version: 6.00 Build 0)  -->

<svg
   xmlns:dc="http://purl.org/dc/elements/1.1/"
   xmlns:cc="http://creativecommons.org/ns#"
   xmlns:rdf="http://www.w3.org/1999/02/22-rdf-syntax-ns#"
   xmlns:svg="http://www.w3.org/2000/svg"
   xmlns="http://www.w3.org/2000/svg"
   xmlns:sodipodi="http://sodipodi.sourceforge.net/DTD/sodipodi-0.dtd"
   xmlns:inkscape="http://www.inkscape.org/namespaces/inkscape"
   version="1.1"
   id="Layer_1"
   x="0px"
   y="0px"
   viewBox="0 0 48 48"
   style="enable-background:new 0 0 48 48;"
   xml:space="preserve"
   inkscape:version="0.91 r13725"
   sodipodi:docname="reconnect.svg"><metadata
     id="metadata17"><rdf:RDF><cc:Work
         rdf:about=""><dc:format>image/svg+xml</dc:format><dc:type
           rdf:resource="http://purl.org/dc/dcmitype/StillImage" /><dc:title></dc:title></cc:Work></rdf:RDF></metadata><defs
     id="defs15" /><sodipodi:namedview
     pagecolor="#ffffff"
     bordercolor="#666666"
     borderopacity="1"
     objecttolerance="10"
     gridtolerance="10"
     guidetolerance="10"
     inkscape:pageopacity="0"
     inkscape:pageshadow="2"
     inkscape:window-width="1364"
     inkscape:window-height="722"
     id="namedview13"
     showgrid="false"
     inkscape:zoom="4.9166667"
     inkscape:cx="65.339205"
     inkscape:cy="24"
     inkscape:window-x="0"
     inkscape:window-y="22"
     inkscape:window-maximized="0"
     inkscape:current-layer="Layer_1" /><style
     type="text/css"
     id="style3">
	.st0{fill:#32B232;}
</style><g
     id="g3345"
     transform="matrix(0.96997895,0,0,0.96997895,0.86600204,0.48093878)"><path
       id="path5"
       d="m 36.8,29.9 -0.4,0.9 C 35,33.7 32.6,36.1 29.7,37.4 26.4,39 22.7,39 19.2,37.5 15.9,36 13,33.2 11.4,29.8 l -0.9,0.4 0,0 -2.6,1.2 c 0,0 0,0 0,0 l -1.8,0.9 c 2.3,4.9 6.2,8.7 11.1,10.8 2.4,1 4.9,1.5 7.4,1.5 2.7,0 5.3,-0.6 7.8,-1.7 4.1,-1.9 7.5,-5.3 9.4,-9.4 l 0.4,-0.9 -5.4,-2.7 z"
       class="st0"
       inkscape:connector-curvature="0"
       style="fill:#32b232" /><polygon
       id="polygon7"
       points="45.5,36.6 41.4,23.5 30.6,31.2 "
       class="st0"
       style="fill:#32b232" /><path
       id="path9"
       d="m 41.2,15.8 0.9,-0.4 C 39.8,10.6 35.8,6.9 30.8,5.1 25.8,3.3 20.3,3.5 15.5,5.8 11.1,7.9 7.6,11.4 5.7,15.7 l -0.4,0.9 5.4,2.4 0.4,-0.9 c 1.4,-3 3.8,-5.5 6.9,-6.9 3.4,-1.6 7.2,-1.8 10.7,-0.5 3.5,1.3 6.3,3.8 7.9,7.2 l 0.9,-0.4 c 0,0 0,0 0,0 l 0.6,-0.3 0.3,-0.1 c 0,0 0,0 0,0 l 2.8,-1.3 c 0,0 0,0 0,0 z"
       class="st0"
       inkscape:connector-curvature="0"
       style="fill:#32b232" /><polygon
       id="polygon11"
       points="17,17.4 2.2,12.1 6.3,25.2 "
       class="st0"
       style="fill:#32b232" /></g></svg>