<?xml version="1.0" encoding="UTF-8" standalone="no"?>
<!-- Created with Inkscape (http://www.inkscape.org/) -->
<svg id="svg2" xmlns:rdf="http://www.w3.org/1999/02/22-rdf-syntax-ns#" xmlns="http://www.w3.org/2000/svg" height="48" width="48" version="1.0" xmlns:cc="http://creativecommons.org/ns#" xmlns:xlink="http://www.w3.org/1999/xlink" xmlns:dc="http://purl.org/dc/elements/1.1/">
 <metadata id="metadata3351">
  <rdf:RDF>
   <cc:Work rdf:about="">
    <dc:format>image/svg+xml</dc:format>
    <dc:type rdf:resource="http://purl.org/dc/dcmitype/StillImage"/>
    <dc:title/>
   </cc:Work>
  </rdf:RDF>
 </metadata>
 <defs id="defs5">
  <clipPath id="clipPath3008">
   <rect id="rect3010" opacity=".26562" stroke-linejoin="round" stroke-dashoffset="4.15" rx="1.1339" ry="1.1339" height="55.396" width="78.124" stroke="#000" stroke-linecap="round" y="-68.245" x="24.681" stroke-width="0.4" fill="none"/>
  </clipPath>
  <filter id="filter3105">
   <feGaussianBlur id="feGaussianBlur3107" stdDeviation="0.66759571"/>
  </filter>
  <clipPath id="clipPath3199">
   <path id="path3201" fill-opacity=".12832" d="m18.19 132.42c-1.4192 0-2.5625 1.1433-2.5625 2.5625v37.183h72v-37.183c0-1.4192-1.1433-2.5625-2.5625-2.5625h-66.875z"/>
  </clipPath>
  <filter id="filter12763" style="color-interpolation-filters:sRGB" height="4.1077" width="2.9548" y="-1.5538" x="-.97742">
   <feGaussianBlur id="feGaussianBlur12765" stdDeviation="30.632986"/>
  </filter>
 </defs>
 <g id="g5938" transform="matrix(1.0542 0 0 1.0542 -1.3006 -.16241)">
  <path id="rect2169" d="m5.4455 3.0562c-1.6462 0.2162-1.085 2.0801-1.1839 3.2317v32.798l3.7489 3.7537c11.626-0.0048 23.252 0.0097 34.878-0.0073 1.3677-0.20279 0.65892-1.9725 0.83416-2.9669v-35.637c-0.21608-1.6422-2.093-1.0678-3.2433-1.1722h-35.034z" fill="#4d4a4b"/>
  <path id="rect2379" stroke-linejoin="round" d="m24.694-69.481v56.656h78.1v-56.656h-78.1z" clip-path="url(#clipPath3008)" stroke-dashoffset="1.0878" transform="matrix(.35234 0 0 .35234 1.5483 27.186)" filter="url(#filter3105)" stroke="#000" stroke-linecap="round" stroke-width="0.7" fill="none"/>
  <g>
   <path id="rect3325" d="m11.041 3.3527c8.6924 0.022766 17.385-0.045498 26.077 0.034078 0.60549 0.95525 0.0803 2.1637 0.26271 3.2228-0.01413 5.168 0.04451 10.336-0.03145 15.504-0.89208 0.59257-2.0274 0.097-3.0233 0.26389-7.8183-0.01819-15.637 0.0451-23.455-0.03262-0.60549-0.95526-0.0803-2.1637-0.26271-3.2228 0.01413-5.168-0.04451-10.336 0.03145-15.504 0.06433-0.15814 0.23005-0.26822 0.40088-0.26534z" fill="#9ca2a9"/>
   <path id="rect3490" opacity=".61328" d="m10.982 3.0562c1.199-0.33868 1.0791 0.92488 1.0304 1.7417v16.931c-0.79012 0.97911-1.7222-0.16309-1.3562-1.1585v-17.189l0.0952-0.23056 0.23056-0.095204z" fill="#cfdce7"/>
   <path id="rect3488" opacity=".54688" d="m36.288 3.2324c1.1979-0.33929 1.0643 0.931 1.0208 1.7417v16.771c-0.78512 0.98353-1.699-0.1739-1.3369-1.1585v-17.029l0.092-0.2298 0.224-0.0952z" fill="#cfdce7"/>
  </g>
  <g fill-rule="evenodd" fill="#b2c6d9">
   <path id="path3476" opacity=".56522" d="m12.717 5.9181c-0.09178 0.89938-0.11373 1.7289 1.0298 1.393h21.52c0.09178-0.89938 0.11373-1.7289-1.0298-1.393h-21.52z"/>
   <path id="path3478" opacity=".56522" d="m12.729 11.593c-0.099 0.89917-0.10339 1.7037 1.0298 1.3707h21.52c0.099-0.89917 0.10339-1.7037-1.0298-1.3707h-21.52z"/>
   <path id="path3480" opacity=".56522" d="m12.717 17.221c-0.08649 0.89953-0.12139 1.7475 1.0298 1.4094h21.52c0.08649-0.89953 0.12139-1.7475-1.0298-1.4094h-21.52z"/>
  </g>
  <path id="rect3626" d="m16.781 130.44c-3.9711 0.63738-2.2992 5.3487-2.6562 8.1675v36.551c1.9741 4.5007 2.8425 2.0925 2.125-1.2232v-37.777c0.63862-3.8517 5.2403-2.1574 7.98-2.5312h60.114c3.8182 0.68293 2.1227 5.2689 2.5 8.0112v34.489c-0.8689 4.5978 3.5912-2.1029 2.1562-4.6221v-38.378c-0.6192-3.9986-5.3412-2.3365-8.1675-2.6875h-64.051z" clip-path="url(#clipPath3199)" transform="matrix(.35234 0 0 .35234 7.2178 -18.207)" filter="url(#filter12763)"/>
  <path id="rect3196" d="m13.613 28.538c-1.2132 0.27339-0.59522 1.7862-0.73975 2.6873 0.01778 3.8272 0.03554 7.6545 0.05332 11.482h19.522c-0.03437-4.5818 0.06884-9.1759-0.05177-13.75-0.63258-0.76857-1.8199-0.28103-2.7124-0.41891h-16.071zm2.2534 2.8301h4.9768c0.66388 0.53783 0.18496 1.7068 0.33032 2.522v5.4217c-0.53087 0.67058-1.705 0.18701-2.5186 0.33374-1.0019-0.06034-2.0527 0.1238-3.0223-0.09751-0.22161-1.8007-0.03482-3.6817-0.09651-5.5138 0.06251-0.85025-0.12667-1.7499 0.09651-2.5686l0.2338-0.09751z" fill="#9ca2a9"/>
 </g>
</svg>
