<svg xmlns="http://www.w3.org/2000/svg" viewBox="0 0 80 80"><title>all</title><path d="M6.30986,3.30522H73.8245a2.88869,2.88869,0,0,1,2.88869,2.88868h0V73.74214a2.88869,2.88869,0,0,1-2.88868,2.88869H10.00469L3.28681,69.913V6.09314a2.88869,2.88869,0,0,1,2.9846-2.78947Z" style="fill:#3575bb"/><path d="M66.09895,7.67184H14.03541A1.84742,1.84742,0,0,0,12.08723,9.3849V42.97428a1.84742,1.84742,0,0,0,1.94818,1.71306H66.09895a1.84742,1.84742,0,0,0,1.94818-1.71306V9.3849A1.84741,1.84741,0,0,0,66.09895,7.67184Z" style="fill:#dce9f3"/><path d="M66.93868,76.66442V54.46184a3.35894,3.35894,0,0,0-3.762-2.88869H20.18227a4.60173,4.60173,0,0,0-2.049.739,2.72074,2.72074,0,0,0-1.24281,2.18331V76.698" style="fill:#295c88"/><path d="M19.4433,51.57316a3.05663,3.05663,0,0,0-1.5787.739,2.95586,2.95586,0,0,0-.97409,2.18331V76.698H55.51829V54.46184a2.88869,2.88869,0,0,0-2.88869-2.88869H19.4433Zm6.04609,3.86278h7.85991a1.142,1.142,0,0,1,.67179.23512L34.189,55.839a1.142,1.142,0,0,1,.23512.67179V69.94655a1.142,1.142,0,0,1-.23512.67179l-0.16795.16794a1.142,1.142,0,0,1-.67179.23512H25.72452a1.142,1.142,0,0,1-.67179-0.23512l-0.16795-.16794a1.142,1.142,0,0,1-.23513-0.67179V56.5108a1.142,1.142,0,0,1,.23513-0.67179l0.16795-.16794a1.20917,1.20917,0,0,1,.40307-0.23512h0.03359Z" style="fill:#95c8ec"/><rect x="16.11771" y="15.66484" width="47.42134" height="6.12087" style="fill:#95c8ec"/><rect x="16.11771" y="29.43396" width="47.42134" height="6.12087" style="fill:#95c8ec"/></svg>