<?xml version="1.0" encoding="UTF-8" standalone="no"?>
<svg
   xmlns:dc="http://purl.org/dc/elements/1.1/"
   xmlns:cc="http://creativecommons.org/ns#"
   xmlns:rdf="http://www.w3.org/1999/02/22-rdf-syntax-ns#"
   xmlns:svg="http://www.w3.org/2000/svg"
   xmlns="http://www.w3.org/2000/svg"
   xmlns:sodipodi="http://sodipodi.sourceforge.net/DTD/sodipodi-0.dtd"
   xmlns:inkscape="http://www.inkscape.org/namespaces/inkscape"
   version="1"
   viewBox="0 0 48 48"
   enable-background="new 0 0 48 48"
   id="svg2"
   inkscape:version="0.91 r13725"
   sodipodi:docname="settings.svg">
  <metadata
     id="metadata12">
    <rdf:RDF>
      <cc:Work
         rdf:about="">
        <dc:format>image/svg+xml</dc:format>
        <dc:type
           rdf:resource="http://purl.org/dc/dcmitype/StillImage" />
        <dc:title></dc:title>
      </cc:Work>
    </rdf:RDF>
  </metadata>
  <defs
     id="defs10" />
  <sodipodi:namedview
     pagecolor="#ffffff"
     bordercolor="#666666"
     borderopacity="1"
     objecttolerance="10"
     gridtolerance="10"
     guidetolerance="10"
     inkscape:pageopacity="0"
     inkscape:pageshadow="2"
     inkscape:window-width="1364"
     inkscape:window-height="722"
     id="namedview8"
     showgrid="false"
     inkscape:zoom="4.9166667"
     inkscape:cx="0.80628267"
     inkscape:cy="24"
     inkscape:window-x="0"
     inkscape:window-y="22"
     inkscape:window-maximized="0"
     inkscape:current-layer="svg2" />
  <path
     d="M 39.624399,26.210526 C 39.724877,25.507177 39.825356,24.803828 39.825356,24 c 0,-0.803828 -0.100479,-1.507177 -0.200957,-2.210526 l 4.52153,-3.21531 c 0.401914,-0.301436 0.602871,-0.904306 0.301435,-1.406699 L 40.026313,9.7320602 C 39.724877,9.2296679 39.222485,9.028711 38.720093,9.3301464 L 33.69617,11.641151 C 32.490429,10.736845 31.284688,10.033496 29.877989,9.4306248 L 29.375597,3.9043101 C 29.275119,3.4019179 28.873205,3.0000041 28.370813,3.0000041 l -8.641147,0 c -0.502392,0 -1.004785,0.4019138 -1.004785,0.904306 L 18.222489,9.4306248 C 16.815791,10.033496 15.509571,10.736845 14.404308,11.641151 L 9.3803856,9.3301464 c -0.5023922,-0.2009569 -1.1052629,0 -1.3062198,0.4019138 L 3.7535924,17.167465 c -0.3014353,0.502393 -0.1004784,1.105263 0.3014354,1.406699 l 4.5215302,3.21531 C 8.4760796,22.492823 8.3756011,23.196172 8.3756011,24 c 0,0.803828 0.1004785,1.507177 0.2009569,2.210526 l -4.7224871,3.21531 c -0.4019138,0.301436 -0.6028707,0.904306 -0.3014354,1.406699 l 4.3205734,7.435405 c 0.3014353,0.502392 0.8038276,0.703349 1.3062198,0.401914 l 5.0239223,-2.311005 c 1.205742,0.904306 2.411483,1.607655 3.818181,2.210526 l 0.502393,5.526315 c 0.100478,0.502392 0.502392,0.904306 1.004784,0.904306 l 8.641147,0 c 0.502392,0 1.004784,-0.401914 1.004784,-0.904306 l 0.502392,-5.526315 c 1.406699,-0.602871 2.712919,-1.30622 3.818181,-2.210526 l 5.023923,2.311005 c 0.502392,0.200957 1.105263,0 1.30622,-0.401914 l 4.320573,-7.435405 c 0.301435,-0.502393 0.100479,-1.105263 -0.301435,-1.406699 l -4.220095,-3.21531 z m -15.674638,7.837319 c -5.526315,0 -10.047845,-4.52153 -10.047845,-10.047845 0,-5.526315 4.52153,-10.047845 10.047845,-10.047845 5.526314,0 10.047845,4.52153 10.047845,10.047845 0,5.526315 -4.521531,10.047845 -10.047845,10.047845 z"
     id="path4"
     inkscape:connector-curvature="0"
     style="fill:#607d8b" />
  <path
     fill="#455A64"
     d="M24,13c-6.6,0-12,5.4-12,12c0,6.6,5.4,12,12,12s12-5.4,12-12C36,18.4,30.6,13,24,13z M24,30 c-2.8,0-5-2.2-5-5c0-2.8,2.2-5,5-5s5,2.2,5,5C29,27.8,26.8,30,24,30z"
     id="path6" />
</svg>
