<svg xmlns="http://www.w3.org/2000/svg" viewBox="0 0 80 80"><title>all</title><path d="M68.83431,44.07945A27.77565,27.77565,0,0,0,69.20517,40a27.77468,27.77468,0,0,0-.37086-4.07945l8.34434-5.93375a1.99612,1.99612,0,0,0,.55629-2.596L69.576,13.669a1.67442,1.67442,0,0,0-2.41058-.74172L57.894,17.19215a33.24243,33.24243,0,0,0-7.04633-4.07945L49.92049,2.91406a1.97183,1.97183,0,0,0-1.8543-1.66887h-15.947a1.82936,1.82936,0,0,0-1.8543,1.66887L29.3378,13.11269a29.20263,29.20263,0,0,0-7.04633,4.07945L13.02,12.92726a1.95329,1.95329,0,0,0-2.41059.74172L2.63592,27.39078a1.99613,1.99613,0,0,0,.55629,2.596l8.34434,5.93375A27.77517,27.77517,0,0,0,11.16569,40a27.77542,27.77542,0,0,0,.37086,4.07945L2.82135,50.0132a1.99613,1.99613,0,0,0-.55629,2.596L10.23854,66.331a1.67442,1.67442,0,0,0,2.41059.74172l9.27148-4.26488a33.24248,33.24248,0,0,0,7.04633,4.07945l0.92715,10.19863a1.97183,1.97183,0,0,0,1.8543,1.66887h15.947a1.82937,1.82937,0,0,0,1.8543-1.66887L50.47678,66.8873a29.20233,29.20233,0,0,0,7.04633-4.07945l9.27148,4.26488a1.95328,1.95328,0,0,0,2.41058-.74172l7.97347-13.7218a1.99613,1.99613,0,0,0-.55629-2.596ZM39.90729,58.543A18.543,18.543,0,1,1,58.45025,40,18.59748,18.59748,0,0,1,39.90729,58.543Z" style="fill:#6b8892"/><path d="M40,17.74844A22.25156,22.25156,0,1,0,62.25156,40,22.317,22.317,0,0,0,40,17.74844Zm0,31.523A9.27148,9.27148,0,1,1,49.27148,40,9.18142,9.18142,0,0,1,40,49.27148Z" style="fill:#384850"/></svg>