<?xml version="1.0" encoding="utf-8"?>
<!-- Generator: Adobe Illustrator 19.2.0, SVG Export Plug-In . SVG Version: 6.00 Build 0)  -->
<svg version="1.1" id="plover" xmlns="http://www.w3.org/2000/svg" xmlns:xlink="http://www.w3.org/1999/xlink" x="0px" y="0px"
	 viewBox="0 0 100 100" style="enable-background:new 0 0 100 100;" xml:space="preserve">
<style type="text/css">
	.st0{opacity:0.35;fill:#FFFFFF;}
	.st1{fill:#FFFFFF;}
</style>
<path id="base-transparent" class="st0" d="M16.9,9.2c-1.2,0-2.1,0.9-2.2,2.1c-0.2,7.1-0.5,30.8,0.6,45.7
	C16.6,74.8,30.5,90.8,50,90.8S83.3,74.9,84.8,57c1.1-13.1,0.7-38.3,0.6-45.7c0-1.2-1-2.1-2.2-2.1L16.9,9.2L16.9,9.2L16.9,9.2z"/>
<g id="X">
	<rect x="21.9" y="39" transform="matrix(0.7071 -0.7071 0.7071 0.7071 -38.5846 39.8587)" class="st1" width="13.8" height="55"/>
	<rect x="1.3" y="59.6" transform="matrix(0.7071 -0.7071 0.7071 0.7071 -38.5524 39.8628)" class="st1" width="55" height="13.8"/>
</g>
</svg>
