<svg xmlns="http://www.w3.org/2000/svg" viewBox="0 0 100 100"><title>states</title><path d="M16.87052,9.17764a2.19954,2.19954,0,0,0-2.2,2.1c-0.2,7.1-.5,30.8.6,45.7,1.3,17.8,15.2,33.8,34.7,33.8s33.3-15.9,34.8-33.8c1.1-13.1.7-38.3,0.6-45.7a2.13535,2.13535,0,0,0-2.2-2.1h-66.3Z" style="fill:#fff;stroke:#000;stroke-miterlimit:10;stroke-width:4px;opacity:0.3499999940395355;isolation:isolate"/><polygon points="53.129 51.932 43.371 42.174 28.791 56.754 14.207 42.17 4.449 51.928 19.033 66.512 4.481 81.064 14.239 90.822 28.791 76.27 43.339 90.818 53.097 81.06 38.549 66.512 53.129 51.932" style="fill:#fff;stroke:#000;stroke-miterlimit:10;stroke-width:2px"/></svg>