<svg xmlns="http://www.w3.org/2000/svg" viewBox="0 0 80 80"><title>all</title><path d="M57.21062,19.19595L57.39975,4.444l10.02378-.37826c4.16081,0,7.56511,4.34994,7.56511,7.75424v7.376h-17.778Z" style="fill:#3575bb"/><path d="M59.85841,75.93427V11.63084a7.58735,7.58735,0,0,1,7.56511-7.56511h-54.847a7.58735,7.58735,0,0,0-7.56511,7.56511V75.93427h54.847Z" style="fill:#95c8ec"/><rect x="14.46775" y="49.45639" width="9.45639" height="3.78255" style="fill:#3575bb"/><rect x="25.43716" y="41.89128" width="10.02377" height="3.78255" style="fill:#3575bb"/><rect x="14.46775" y="28.08495" width="15.13022" height="3.78255" style="fill:#3575bb"/><rect x="33.56966" y="19.19595" width="14.94109" height="3.78255" style="fill:#3575bb"/><rect x="36.21745" y="57.0215" width="12.2933" height="3.78255" style="fill:#3575bb"/><rect x="18.25031" y="64.77573" width="15.13022" height="3.78255" style="fill:#3575bb"/><rect x="42.26953" y="34.32617" width="6.8086" height="3.78255" style="fill:#3575bb"/><rect x="14.46775" y="19.19595" width="6.24122" height="3.78255" style="fill:#3575bb"/><rect x="42.26953" y="49.45639" width="6.24121" height="3.78255" style="fill:#3575bb"/></svg>