<svg xmlns="http://www.w3.org/2000/svg" viewBox="0 0 80 80"><title>all</title><polyline points="54.21 5.121 51.626 0.384 28.374 0.384 25.79 5.121" style="fill:#6b8892"/><path d="M15.88593,70.14259c0,5.1673,0,9.47339,5.1673,9.47339H58.51616c5.1673,0,5.1673-4.30608,5.1673-9.47339V14.16349H15.88593v55.9791Z" style="fill:#6b8892"/><path d="M66.69773,5.12072H13.30228a1.14182,1.14182,0,0,0-1.29183,1.29182v7.751h55.9791v-7.751A1.14182,1.14182,0,0,0,66.69773,5.12072Z" style="fill:#384850"/><path d="M41.72243,71.43441H38.27756a0.92615,0.92615,0,0,1-.86122-0.86122V22.77566a0.92615,0.92615,0,0,1,.86122-0.86122h3.44487a0.92614,0.92614,0,0,1,.86122.86122V70.14259A0.89226,0.89226,0,0,1,41.72243,71.43441Z" style="fill:#384850"/><path d="M54.64069,71.43441H52.057a0.92615,0.92615,0,0,1-.86122-0.86122V22.77566a0.92615,0.92615,0,0,1,.86122-0.86122h2.58365a0.92614,0.92614,0,0,1,.86122.86122V70.14259A1.08162,1.08162,0,0,1,54.64069,71.43441Z" style="fill:#384850"/><path d="M27.943,71.43441H25.35931a0.92615,0.92615,0,0,1-.86122-0.86122V22.77566a0.92615,0.92615,0,0,1,.86122-0.86122H27.943a0.92614,0.92614,0,0,1,.86122.86122V70.14259C29.23479,71.00381,28.80418,71.43441,27.943,71.43441Z" style="fill:#384850"/></svg>