<svg id="Layer_1" data-name="Layer 1" xmlns="http://www.w3.org/2000/svg" xmlns:xlink="http://www.w3.org/1999/xlink" viewBox="0 0 131.28 151.01"><defs><style>.cls-1{fill:url(#linear-gradient);}.cls-2{fill:#fff;}</style><linearGradient id="linear-gradient" x1="118.57" y1="196.76" x2="118.57" y2="45.75" gradientUnits="userSpaceOnUse"><stop offset="0" stop-color="#305c53"/><stop offset="0.14" stop-color="#3b665d"/><stop offset="0.55" stop-color="#568078"/><stop offset="0.66" stop-color="#5f8981"/><stop offset="0.84" stop-color="#79a099"/><stop offset="1" stop-color="#94bab3"/></linearGradient></defs><title>plover-icon</title><path id="path4923" class="cls-1" d="M57.25,45.75a4,4,0,0,0-4,3.92c-0.27,13.21-.94,56.87,1.09,84.5,2.41,32.92,28.21,62.59,64.25,62.59s61.57-29.5,64.25-62.59c2-24.21,1.32-70.73,1.08-84.49a4,4,0,0,0-4-3.92H57.25Z" transform="translate(-52.92 -45.75)"/><path class="cls-2" d="M114.13,108L110.5,72.17a1.77,1.77,0,0,1,1.8-2h12.42a1.78,1.78,0,0,1,1.8,2L123,108a1.07,1.07,0,0,0,1.63,1.19L158.48,94.4a1.78,1.78,0,0,1,2.45,1.1L164.67,107a1.73,1.73,0,0,1-1.34,2.29l-37.19,7.29a1,1,0,0,0-.62,1.86l24.54,26.93a1.71,1.71,0,0,1-.29,2.62l-10.07,7a1.79,1.79,0,0,1-2.63-.59L119.5,123.52a1,1,0,0,0-2,0l-17.47,30.85a1.78,1.78,0,0,1-2.62.59l-10.07-7a1.71,1.71,0,0,1-.29-2.63l24.44-26.92a1,1,0,0,0-.62-1.87L73.8,109.24A1.74,1.74,0,0,1,72.45,107L76.1,95.5a1.77,1.77,0,0,1,2.44-1.11l33.95,14.82A1.07,1.07,0,0,0,114.13,108Z" transform="translate(-52.92 -45.75)"/></svg>