<svg xmlns="http://www.w3.org/2000/svg" viewBox="0 0 547 304.51"><title>dolores</title><path d="M479.57,57.28c6,8.31-3.38,11.5-5.49,18.05-0.8,2.49-.22,6.39-0.79,8.63-1.83,7.26-9.26,10.24-11,15.7-5.51,17.52,16.66,49.73-7.84,50.22-1.68,3-4.23,5.19-6.28,7.85-10.29-2.17-8.65,7.56-18.84,5.49-3,2-4.91,5-7.84,7.07-1.36,5.57,1.88,10.19,0,14.91-1.74,4.36-6.31,2.64-13.35,4.71-2.4.7-5,3.48-7.06,3.92-2.79.6-7-1.31-9.42-.78-3.4.73-4.41,3.6-6.28,3.92-5,.86-9,0.16-11-1.57-8.84,7.13-25.71,2.52-21.19-13.34-4.92-5.17-13.62,3.88-20.4-1.57-3.68,4.68-9.48,1.47-14.12,3.14-3.61,1.29-4.19,5.35-7.07,7.85-7.07,6.15-16.56,9.58-24.33,14.12,8.63,17.69,26.46,26.26,52.58,27.47,11.36,0.53,32.39-.73,33,12.56-2.88,2.36-8.77,1.7-13.35,2.36,1.08,4.8,5.89,9.62,3.14,15.69-8.16,2.81-14.4-2.79-21.2-3.93-1.76,3,2.77,9.32,0,13.35-15.15,0-23.84-13-33.74-21.19-10.28-8.55-22.2-14.86-34.53-21.19a109.57,109.57,0,0,1-7.07-18.05c-13.37,3.43-31.33,6.26-47.87,3.92-2.23,7.81-13.28,15.13-14.91,24.33-1.9,10.69,4.34,17,8.63,25.11,12.34,4.93,32.76,1.78,34.53,17.27-3.81,3.52-13.15,1.51-17.27,4.71-0.05,4.94,3,10.32.79,14.92-10.41,2.49-12.57-8.54-22-6.28-4.48,1.07-4.22,8.29-9.42,7.84-6.08-.53-7.08-19.38-8.63-27.47-2.24-11.62-6.31-18.31-7.85-28.25-2.66-17.24,11.22-25.67,12.56-37.67-5.21-1.63-8.09-5.39-12.56-6.28-7.9-1.56-15.4,1.29-22,0-1.75-.34-3.84-2.11-5.49-2.35-13.43-1.92-22.9.06-32.17-4.71-4.18-2.16-6.37-6.49-12.55-10.2-13.79-8.28-32.43-7.35-43.17-22,5.1-3.64,15.47-2.3,22-.79C88.62,154.54,61.33,161.07,66,146c8.52-4.2,19.84.61,26.68,3.14C93.52,147,88,141,91.11,136.55c13.22,0,23.08,11.19,35.32,1.57,5.91-4.65,9.88-12.76,14.91-19.62,14.89-20.31,32.53-42.55,67.49-43.16,3.33-3,5-7.54,7.84-11-9.06-7.68-17.56-15.93-24.32-25.9,9.53-1.42,19,4,29,4.71-4.17-7.89-6.2-30.54,3.93-33,2.1-.5,6.38-0.47,7.84,2.35C242.83,1.92,262.19-1.79,281,.79c29.34,4,52.71,38.63,50.23,77.69,44.57,9.31,101.52,4.61,134.2-14.12C470.06,61.71,473.53,56.93,479.57,57.28Zm-2.35,5.49c0.18-1.34-.89-1.94-0.79,0-31.77,25-94.94,26.33-148.32,20.41,1.76,7.66,4.46,14.37,5.49,22.75,50.25,5.66,97-7.62,127.14-25.9C467.57,75.91,473.78,69.81,477.22,62.78ZM457.6,97.31c5.74-5.25,12.06-9.93,12.56-20.4-32.56,19.82-77.61,37.93-135.77,32.18,1.87,7.54-.38,19.21,1.56,26.68,4.84,6.91,14.32-.8,16.48-0.79,0.54,0,3.14,2.81,4.72,3.14,4.74,1,7.92.63,11-2.36,4,4.19,16.58,3.1,18-2.36,2.94,6.94,14.3,3.4,15.69-2.35,3,7,16.09,3.86,14.92-4.71,4.54,6,15.86,2.35,14.12-7.07,6.45,6,15.41-.45,14.91-8.63C453.88,116.28,461.93,106.47,457.6,97.31ZM452.11,146c13,1.76,9.86-11.46,7.85-19.62-1.71,3-4.81,4.61-9.42,4.71C451.54,135.54,450.7,141.88,452.11,146Zm-2.35-17.27c11.65,2,11.07-10.45,7.84-17.27-1.11,2.81-4.35,3.5-8.63,3.14C449.38,119.14,448.09,125.4,449.76,128.7ZM439.56,153c11.22,5.77,12.35-12.22,8.63-18.84-0.4,4-4.78,4.12-9.42,3.93C439.92,142.2,439.49,147.86,439.56,153Zm-2.36-17.27c11.15,5.57,13.67-11.63,9.42-18.84-1.26,4.23-3.62,7.37-9.42,7.07Q437.2,129.88,437.2,135.77ZM427,159.31c13.89,2.79,11.26-12.25,9.42-21.19-1.5,4-5,6-11,5.49C426,148.84,425.8,154.75,427,159.31Zm8.63-22c0.59-5.29-1.26-8.16-.79-13.34-4.55,1.73-3.93,8.63-11,7.85,0.29,3.1-.72,7.51.79,9.42C430.56,142.21,433,139.7,435.63,137.34ZM412.09,164c12.2,7.7,15-8.8,11-18.05-0.42,5.85-9.61,3.52-11.77,5.49C413.11,154.09,411.58,160.08,412.09,164Zm-1.57-16.48c11.17,4.81,13.51-6.46,11-15.69-5.62-2.46-4.71,6.93-11.77,5.49C409.78,141,409.38,145,410.52,147.54Zm-3.92,37.67c11.46,4.39,13.24-7.36,11-17.27C408.28,163.09,403.14,175.22,406.6,185.21Zm-10.21-18.05c11.6,9,17.57-7.16,12.56-18-1.28,4.86-7.64,6.6-13.34,4.71C396.63,157.5,396.41,162.42,396.39,167.15Zm-1.57-16.48c8.78,5.73,16.73-3.51,12.55-13.34C399.58,133.73,392.18,139.18,394.82,150.67Zm-3.93,37.67c10.29,8,16.24-5,12.56-16.48C393.72,167.93,389.54,176.73,390.89,188.34Zm3.93-17.26c-0.52-5.5,1-13.07-.79-17.27-1.28,4.87-7.64,6.6-13.35,4.71,0.21,4.51-.59,10,0.79,13.34C384.25,175.52,392.72,174.65,394.82,171.08ZM379.13,154.6c10,7.81,17.55-4,13.34-15.7-6.42-2.32-8.4,0-14.12,1.57C378.57,145.22,377.71,151,379.13,154.6Zm-3.93,36.88c10.48,6,17.4-3.58,13.35-14.91-4.54.35-6.14-2.24-9.42-3.14-0.12,3.29-3.52,3.28-5.49,4.71C373.52,183.22,373.45,188.27,375.2,191.49ZM365,160.1c-5.14,26.45,23.67,14.23,11.77-3.93C375.85,160.76,369.75,161.59,365,160.1Zm-3.14-18.84c-3.54,24.74,21.71,19.88,14.12-.79C369.23,139.23,367.15,137.54,361.86,141.26Zm-3.93,51c9.3,7,17.76-2.45,13.35-14.13-7.08-3.89-7.73-1.43-14.12,1.57C357.09,184.23,357,188.78,357.93,192.27Zm-4.71,54.93c3.36-3.44,11.88-1.73,15.69-4.71-9.61-4.46-20.43-5-30.6-5.49-25.77-1.33-46.41-10-54.94-29.83,0-.48-0.11-0.93-0.79-0.79-3.52,2.49-9.59,2.44-12.56,5.49,2.21,5.11,4.33,10.32,6.28,15.69,25.28,9.78,39.61,30.5,62.78,42.38a39,39,0,0,1-1.57-13.35c8.59-3.39,15.3,4.75,22,3.14C358.25,254.74,354.71,252,353.22,247.21ZM349.3,175c11,9.54,18.72-8.32,11.77-17.27-0.91,4.81-7.63,5.42-12.56,3.92C348.72,166.17,347.93,171.67,349.3,175Zm11.77-19.62c1.88-5.42-2.3-8.11-.79-14.91-6.68-1.18-9-3.07-14.91,0,3.05,6.14-1.52,10.32.79,15.7C349.13,163.12,359.18,160.84,361.08,155.38Zm-29,6.28c-4.41,27,24.93,15.17,12.56-2.35C342.94,163.19,335.88,164.39,332,161.66Zm-1.57-3.92c10.51,9.67,17.35-4.53,13.35-17.27-4.69.51-6.3-2.07-9.42-3.14A57,57,0,0,1,330.46,157.74Zm-11,22c12.48,2.4,11.73-9.62,9.42-18.05C326.91,168.83,322.37,173.45,319.48,179.71Zm6.28-97.31c8.92-50.12-34.95-95.55-83.19-71.42,13.34,4.48,34-4.4,41.6,8.63,9,15.49-1.79,38.2-20.4,37.67C267.82,82.45,297.22,86.42,325.76,82.4ZM310.85,186c19-20.23,30.84-68.32,14.12-102-28.35,5.41-62.29.75-63.56-28.25,18.33,0.54,31-23.05,19.62-36.1-7.8-8.91-19.67-3.33-31.39-3.92-4.52-.23-7.22-2.75-11-2.36-3.37,10.48-.33,28-13.34,29.82,6.89,6.33,18.6,14.06,15.7,28.25-1,4.87-4.81,6.75-7.85,11,12.42,10.87,26.9,19.66,50.23,19.62,3,21.22-17.6,37.1-37.67,40-8.34,18.09-11,34.16-28.25,39.24-3.68,1.08-7.3.05-11.77,1.56-4,1.36-7.36,6.27-11.77,7.85-11.29,4.05-24.39,3.3-33.75,10.2,18.4-3.46,32.49,4.56,42.38,7.85C237.46,220.36,291.59,206.52,310.85,186ZM281,103.59c-15.75,1-24.08-2.41-33.74-7.85-5.12-2.88-13.81-12.47-18.05-12.55-1.5,0-6.42,3.44-9.42,4.71-6.42,2.72-11.18,5.23-18.05,3.92,0.41-5.34,3-8.52,4.71-12.56-20.46,1.79-34.4,10.07-44.73,22-1.34,1-3.08,1.63-3.14,3.93-1.93,1.21-3.13,3.15-4.71,4.71-1.35,1-3.09,1.62-3.14,3.92-4.3,5.9-8.86,11.55-12.56,18.05-4,4.85-9.18,10.55-16.48,14.12h-3.92v0.79h-3.92c-8.4-1-14.63-4.21-20.4-7.85,1.31,6.55,5.14,10.56,10.2,13.34,0.71,1.38,2.75,1.43,3.92,2.36,2,2,5.62,2.22,7.85,3.92a29.21,29.21,0,0,0,5.49,3.14v0.79c-0.24,3.9,1,6.34,3.14,7.85,4.43,6.55,13.82,8.16,24.33,8.63h5.49v1.57h-0.79c0.41,11.35,12,11.49,23.54,11.77,2.4,0.56,2.86-.8,4.71-0.79a64.49,64.49,0,0,0,17.26-6.28c1.37-1.76,4.47-1.81,4.71-4.71,5.08,0.11,10.12.18,13.34-1.57,4.52-1.49,8.53-3.5,11-7.07A48.28,48.28,0,0,0,236.3,157c1.16-.66,1.13-2.52,1.56-3.92a50.74,50.74,0,0,0,3.93-10.2c1.06-.77,1.56-2.1,2.35-3.14C264.85,137.12,281,122.63,281,103.59ZM225.31,285.66c3.38-4.2,12.13-3,17.26-5.49-7.84-9.23-23.12-4.07-33-10.2-6.63-4.14-11.22-19.52-10.2-28.25,1.38-11.89,11.9-17.85,14.13-27.47a123.3,123.3,0,0,1-14.92-3.93c1.32,14.85-15,21.11-12.55,36.1,1.33,8.13,5.1,16.95,7.06,26.68,1.91,9.53,3.79,19.28,6.28,28.25,2.24-15.26,21.17-7.31,28.25-1.57C226.45,295.5,224.6,291.86,225.31,285.66ZM229.23,33c3.87-.46,4.6-10.57.79-11.77C228.26,23.74,227.83,29.59,229.23,33Zm2.35,38.45c-4.87-1.4-8-4.57-12.55-6.28C214.45,72.06,206.69,80,205.69,87.9,214.06,82.14,225.5,79.46,231.58,71.42Z"/><path d="M476.44,62.78c-0.1-1.94,1-1.34.79,0-3.45,7-9.66,13.13-16.48,17.27-30.15,18.27-76.89,31.56-127.14,25.9-1-8.38-3.74-15.09-5.49-22.75C381.5,89.11,444.67,87.74,476.44,62.78Z" style="fill:#ca9e2e"/><path d="M470.16,76.91c-0.5,10.48-6.82,15.15-12.56,20.4,4.33,9.16-3.72,19-11.77,13.34,0.5,8.18-8.46,14.63-14.91,8.63,1.74,9.42-9.58,13.09-14.12,7.07,1.17,8.57-11.91,11.66-14.92,4.71-1.4,5.75-12.76,9.29-15.69,2.35-1.46,5.46-14,6.55-18,2.36-3.07,3-6.25,3.37-11,2.36-1.57-.34-4.17-3.14-4.72-3.14-2.16,0-11.64,7.7-16.48.79-1.95-7.47.31-19.14-1.56-26.68C392.55,114.84,437.6,96.72,470.16,76.91Z" style="fill:#fff"/><path d="M460,126.35c2,8.16,5.16,21.38-7.85,19.62-1.41-4.08-.56-10.42-1.56-14.91C455.14,131,458.25,129.35,460,126.35Z" style="fill:#ca9e2e"/><path d="M457.6,111.43c3.23,6.81,3.81,19.3-7.84,17.27-1.67-3.3-.38-9.56-0.79-14.12C453.25,114.94,456.49,114.24,457.6,111.43Z" style="fill:#ca9e2e"/><path d="M448.19,134.19c3.72,6.62,2.6,24.61-8.63,18.84-0.06-5.17.37-10.83-.79-14.91C443.41,138.31,447.78,138.24,448.19,134.19Z" style="fill:#ca9e2e"/><path d="M446.61,116.93c4.25,7.21,1.73,24.41-9.42,18.84V124C443,124.3,445.36,121.16,446.61,116.93Z" style="fill:#ca9e2e"/><path d="M436.41,138.12c1.85,8.94,4.47,24-9.42,21.19-1.2-4.56-1-10.47-1.57-15.7C431.41,144.1,434.92,142.12,436.41,138.12Z" style="fill:#ca9e2e"/><path d="M434.84,124c-0.47,5.19,1.37,8,.79,13.34-2.6,2.37-5.07,4.88-11,3.92-1.5-1.9-.49-6.31-0.79-9.41C430.91,132.62,430.29,125.72,434.84,124Z" style="fill:#ca9e2e"/><path d="M423.08,146c4.06,9.26,1.21,25.75-11,18.05-0.51-3.94,1-9.93-.79-12.56C413.46,149.49,422.66,151.82,423.08,146Z" style="fill:#ca9e2e"/><path d="M421.5,131.84c2.52,9.24.18,20.5-11,15.69-1.14-2.53-.74-6.58-0.79-10.2C416.8,138.77,415.88,129.39,421.5,131.84Z" style="fill:#ca9e2e"/><path d="M417.58,167.94c2.25,9.91.47,21.66-11,17.27C403.14,175.22,408.28,163.09,417.58,167.94Z" style="fill:#ca9e2e"/><path d="M408.95,149.11c5,10.88-1,27-12.56,18,0-4.73.24-9.66-.78-13.34C401.31,155.71,407.66,154,408.95,149.11Z" style="fill:#a36a2c"/><path d="M407.37,137.34c4.18,9.83-3.77,19.07-12.55,13.34C392.18,139.18,399.58,133.73,407.37,137.34Z" style="fill:#a36a2c"/><path d="M403.45,171.86c3.68,11.46-2.27,24.43-12.56,16.48C389.54,176.73,393.72,167.93,403.45,171.86Z" style="fill:#ca9e2e"/><path d="M394,153.82c1.82,4.2.27,11.77,0.79,17.27-2.1,3.56-10.57,4.44-13.34.78-1.37-3.33-.58-8.83-0.79-13.34C386.4,160.42,392.75,158.69,394,153.82Z" style="fill:#ca9e2e"/><path d="M392.46,138.9c4.21,11.69-3.36,23.52-13.34,15.7-1.42-3.56-.56-9.39-0.79-14.13C384.06,138.86,386,136.58,392.46,138.9Z" style="fill:#ca9e2e"/><path d="M388.54,176.58c4.06,11.33-2.86,20.9-13.35,14.91-1.75-3.22-1.68-8.26-1.56-13.35,2-1.43,5.37-1.42,5.49-4.71C382.4,174.34,384,176.93,388.54,176.58Z" style="fill:#a36a2c"/><path d="M376.77,156.17c11.89,18.16-16.92,30.38-11.77,3.93C369.75,161.59,375.85,160.76,376.77,156.17Z" style="fill:#a36a2c"/><path d="M376,140.47c7.58,20.66-17.66,25.52-14.12.79C367.15,137.54,369.23,139.23,376,140.47Z" style="fill:#a36a2c"/><path d="M371.28,178.14c4.42,11.68-4,21.18-13.35,14.13-1-3.49-.85-8-0.78-12.56C363.55,176.71,364.2,174.25,371.28,178.14Z" style="fill:#ca9e2e"/><path d="M368.92,242.5c-3.81,3-12.33,1.27-15.69,4.71,1.49,4.79,5,7.53,6.28,12.55-6.68,1.61-13.38-6.52-22-3.14A39,39,0,0,0,339.1,270c-23.18-11.88-37.51-32.6-62.79-42.38-1.95-5.37-4.07-10.58-6.28-15.69,3-3.05,9-3,12.56-5.49,0.67-.15.74,0.3,0.79,0.79,8.52,19.86,29.16,28.5,54.94,29.83C348.49,237.52,359.31,238,368.92,242.5Z" style="fill:#ca9e2e"/><path d="M361.08,157.74c6.94,9-.75,26.8-11.77,17.27-1.37-3.33-.59-8.83-0.79-13.34C353.45,163.16,360.17,162.55,361.08,157.74Z" style="fill:#ca9e2e"/><path d="M360.29,140.47c-1.52,6.8,2.67,9.49.79,14.91s-11.94,7.74-14.91.79c-2.3-5.37,2.27-9.55-.79-15.7C351.31,137.4,353.61,139.3,360.29,140.47Z" style="fill:#a36a2c"/><path d="M344.6,159.31c12.38,17.52-17,29.33-12.56,2.35C335.88,164.39,342.94,163.19,344.6,159.31Z" style="fill:#ca9e2e"/><path d="M343.81,140.47c4,12.73-2.84,26.93-13.35,17.27a57,57,0,0,0,3.93-20.4C337.51,138.41,339.12,141,343.81,140.47Z" style="fill:#ca9e2e"/><path d="M328.9,161.66c2.3,8.43,3.06,20.45-9.42,18.05C322.37,173.45,326.91,168.83,328.9,161.66Z" style="fill:#ca9e2e"/><path d="M242.57,11c48.24-24.13,92.11,21.3,83.19,71.42-28.54,4-57.94,0-62-25.12,18.61,0.53,29.43-22.18,20.4-37.67C276.57,6.58,255.91,15.47,242.57,11Z" style="fill:#ca9e2e"/><path d="M325,84c16.72,33.71,4.85,81.8-14.12,102-19.26,20.53-73.39,34.37-108.3,22.76-9.9-3.3-24-11.31-42.38-7.85,9.35-6.9,22.46-6.15,33.75-10.2,4.41-1.58,7.75-6.48,11.77-7.85,4.47-1.51,8.09-.48,11.77-1.56,17.21-5.08,19.91-21.15,28.25-39.24,20.07-2.92,40.66-18.81,37.67-40-23.32,0-37.81-8.75-50.23-19.62,3-4.24,6.85-6.12,7.85-11,2.91-14.19-8.81-21.92-15.69-28.25,13-1.81,10-19.34,13.34-29.82,3.77-.4,6.46,2.13,11,2.36,11.72,0.59,23.59-5,31.39,3.92,11.42,13.05-1.28,36.65-19.62,36.1C262.68,84.71,296.63,89.38,325,84ZM259,47.08C277,49.14,272.86,9,257.49,16.48,250,20.12,247.84,45.8,259,47.08Z" style="fill:#fff"/><path d="M247.28,95.74c9.66,5.44,18,8.84,33.74,7.85,0,19-16.18,33.53-36.88,36.1-8.71-.75-11.7-2.75-13.34-7.84-1.09-3.39,1.45-12.75.78-13.35-1.73-1.55-7.34,7.7-11.77,8.64-13.16,2.77-19-7.6-16.48-21.2-9.14,14-35.23,7.84-27.47-14.12-5.32,2.53-6.69,9-14.13,9.41,10.33-11.9,24.28-20.19,44.73-22-1.72,4-4.3,7.22-4.71,12.56,6.87,1.31,11.63-1.21,18.05-3.92,3-1.27,7.91-4.75,9.42-4.71C233.47,83.27,242.16,92.86,247.28,95.74Z" style="fill:#ca9e2e"/><path d="M263.76,26.68c4.24,0.91,2.46,10.41,0,11.77C259.85,37.87,260.71,27.45,263.76,26.68Z" style="fill:#fff"/><path d="M257.49,16.48C272.86,9,277,49.14,259,47.08,247.84,45.8,250,20.12,257.49,16.48Zm6.28,22c2.46-1.36,4.24-10.87,0-11.77C260.71,27.45,259.85,37.87,263.76,38.45Z"/><path d="M244.14,139.69c-0.79,1-1.29,2.37-2.35,3.14-5.43-.69-4.94,6.86-3.93,10.2-0.43,1.4-.4,3.26-1.56,3.92-3-1.2-.93-7.44-3.14-9.42-2.4,4.65-9.8,6.74-16.48,4.71-2.76,10,1.86,18.92,11,19.62-2.46,3.56-6.46,5.57-11,7.07,0-3.39,3.91-2.89,3.92-6.28-5.53-2.31-7-8.71-8.63-14.91-4.23,4.64-9.09,5.74-15.69,4.71-3.74,7,.21,16.75,7.07,18.05-0.24,2.9-3.34,2.95-4.71,4.71-0.52-5.07-7.41-10.3-7.84-18.05-3.29,3.3-10,6.34-16.48,3.93-2,8.71.47,17.84,7.07,20.4-1.85,0-2.31,1.35-4.71.79v-0.79c-4.42-2.65-5.17-9-7.06-14.13-2.75,2.62-11.41,7.26-15.69,3.14v-1.57H148.4C145,175.48,142,168.48,142.12,164c-5,2.82-10.47,5.85-18.05,3.92v2.36c-2.16-1.51-3.37-4-3.14-7.85,6.84,5.3,21.41,2.11,22.75-5.49-5.17-2.68-8-7.74-7.84-15.69-4.34,1.94-7,5.52-14.13,4.71,7.3-3.57,12.5-9.27,16.48-14.12,7.87,4.47,17.53-.74,19.62-7.07-3.51-2.51-6.87-5.17-7.07-11,0.05-2.3,1.79-2.91,3.14-3.92-3.85,13.9,22.07,20,25.11,5.49-3.12-3.53-7.75-9.37-6.28-14.92-4.8,1.49-7.19,5.37-14.12,4.71,0.05-2.3,1.79-2.91,3.14-3.93,7.44-.4,8.81-6.88,14.13-9.41-7.77,22,18.33,28.11,27.47,14.12-2.5,13.6,3.32,24,16.48,21.2,4.43-.94,10-10.19,11.77-8.64,0.67,0.6-1.87,10-.78,13.35C232.44,136.94,235.44,138.94,244.14,139.69ZM234.73,142c-3.86-4-5.93-9.77-7.85-15.69-4.31,3.07-9.43,5.68-16.48,3.92C202.39,147.2,228.26,156.77,234.73,142Zm-20.4,8.63c-5.86-2.25-7.63-8.59-8.64-15.69-2.17,5.12-12.45,4.65-17.27,4.71C182,158.43,208.5,166.07,214.32,150.67Zm-7.06-22.76c-6.23-1.62-5-10.71-8.64-14.91-3.43,3.66-9.84,5.73-16.48,3.92C174.66,136.57,202.73,144.41,207.26,127.91Zm-14.91,33c-4.86-3.25-6-10.27-8.64-15.69-3.79,3.81-10.57,5.61-15.69,3.93C160.41,168.06,186.6,174.7,192.35,160.88Zm-6.28-22.75c-5.63-2.49-6.94-9.29-8.64-15.7-2.4,4.67-9,5.15-16.48,4.71C155.34,146.65,179.74,152.51,186.07,138.12Zm-14.13,31.39c-6.34-1.77-6.43-9.78-9.42-14.91-3.47,4.36-8.77,5.87-15.69,3.92C139.47,179,166.5,184.72,171.94,169.51Zm-7.84-22a25.36,25.36,0,0,1-7.85-15.69c-3.3,4.29-10.09,5.63-16.48,4.71C132.52,155.16,159.12,162.71,164.1,147.54Z" style="fill:#fff"/><path d="M237.86,153c-1-3.34-1.5-10.9,3.93-10.2A50.74,50.74,0,0,1,237.86,153Z" style="fill:#ca9e2e"/><path d="M233.15,147.54c2.21,2,.16,8.22,3.14,9.42a48.28,48.28,0,0,1-8.64,14.91c-9.12-.7-13.75-9.58-11-19.62C223.35,154.28,230.75,152.18,233.15,147.54Z" style="fill:#ca9e2e"/><path d="M242.57,280.17c-5.13,2.46-13.88,1.29-17.26,5.49-0.71,6.2,1.14,9.84,2.35,14.12-7.08-5.74-26-13.69-28.25,1.57-2.49-9-4.36-18.72-6.28-28.25-2-9.73-5.73-18.55-7.06-26.68-2.46-15,13.87-21.26,12.55-36.1a123.3,123.3,0,0,0,14.92,3.93c-2.24,9.62-12.75,15.58-14.13,27.47-1,8.73,3.57,24.11,10.2,28.25C219.45,276.1,234.73,270.94,242.57,280.17Z" style="fill:#ca9e2e"/><path d="M226.87,126.35c1.92,5.93,4,11.7,7.85,15.69-6.46,14.73-32.33,5.16-24.33-11.77C217.44,132,222.56,129.43,226.87,126.35Z" style="fill:#ca9e2e"/><path d="M230,21.19c3.82,1.2,3.08,11.31-.79,11.77C227.83,29.59,228.26,23.74,230,21.19Z" style="fill:#fff"/><path d="M219,65.14c4.57,1.71,7.68,4.88,12.55,6.28-6.08,8-17.52,10.73-25.9,16.48C206.69,80,214.45,72.06,219,65.14Z" style="fill:#a36a2c"/><path d="M220.59,172.65c0,3.39-3.91,2.89-3.92,6.28-3.22,1.76-8.26,1.69-13.34,1.57-6.85-1.3-10.8-11-7.07-18.05,6.61,1,11.47-.07,15.69-4.71C213.61,163.94,215.06,170.34,220.59,172.65Z" style="fill:#ca9e2e"/><path d="M205.69,135c1,7.1,2.78,13.44,8.64,15.69-5.82,15.4-32.35,7.75-25.9-11C193.23,139.63,203.52,140.1,205.69,135Z" style="fill:#ca9e2e"/><path d="M198.62,113c3.65,4.2,2.4,13.29,8.64,14.91-4.53,16.5-32.6,8.65-25.12-11C188.79,118.74,195.19,116.67,198.62,113Z" style="fill:#ca9e2e"/><path d="M190.78,167.15c0.43,7.75,7.32,13,7.84,18.05a64.48,64.48,0,0,1-17.26,6.28c-6.59-2.56-9-11.7-7.07-20.4C180.79,173.49,187.49,170.45,190.78,167.15Z" style="fill:#ca9e2e"/><path d="M183.71,145.18c2.69,5.42,3.78,12.44,8.64,15.69-5.75,13.83-31.94,7.19-24.33-11.77C173.14,150.79,179.92,149,183.71,145.18Z" style="fill:#ca9e2e"/><path d="M177.43,122.42c1.69,6.42,3,13.21,8.64,15.7-6.32,14.38-30.72,8.53-25.12-11C168.45,127.57,175,127.09,177.43,122.42Z" style="fill:#ca9e2e"/><path d="M176.65,191.49v0.79c-11.49-.28-23.13-0.42-23.54-11.77h0.79c4.29,4.12,12.95-.53,15.69-3.14C171.47,182.53,172.23,188.84,176.65,191.49Z" style="fill:#ca9e2e"/><path d="M172.73,100.45c-1.47,5.55,3.16,11.38,6.28,14.92-3,14.48-29,8.41-25.11-5.49,1.58-1.56,2.78-3.5,4.71-4.71C165.54,105.82,167.93,101.93,172.73,100.45Z" style="fill:#ca9e2e"/><path d="M162.52,154.6c3,5.13,3.07,13.14,9.42,14.91-5.44,15.21-32.47,9.45-25.11-11C153.76,160.47,159.05,159,162.52,154.6Z" style="fill:#ca9e2e"/><path d="M156.24,131.84a25.36,25.36,0,0,0,7.85,15.69c-5,15.17-31.58,7.62-24.33-11C146.16,137.47,152.94,136.13,156.24,131.84Z" style="fill:#ca9e2e"/><path d="M150.75,113.79c0.2,5.81,3.56,8.48,7.07,11-2.09,6.32-11.75,11.54-19.62,7.07C141.89,125.34,146.45,119.69,150.75,113.79Z" style="fill:#ca9e2e"/><path d="M142.12,164c-0.15,4.46,2.91,11.46,6.28,14.91-10.51-.47-19.91-2.08-24.33-8.63v-2.36C131.65,169.87,137.13,166.83,142.12,164Z" style="fill:#ca9e2e"/><path d="M135.84,141.26c-0.11,8,2.68,13,7.84,15.69-1.34,7.6-15.91,10.79-22.75,5.49v-0.79c-2.65-3.37-3.58-8.46-3.14-14.91V146h3.92C128.81,146.78,131.5,143.2,135.84,141.26Z" style="fill:#ca9e2e"/><path d="M113.87,146.75h3.92c-0.44,6.45.5,11.54,3.14,14.91a29.21,29.21,0,0,1-5.49-3.14c-1.44-1.7.15-6.42-1.57-7.85-1.13,2.27-3.56,3.23-6.28,3.93-1.17-.92-3.21-1-3.92-2.36C108.7,152,111.43,149.55,113.87,146.75Z" style="fill:#fff"/><path d="M113.87,150.67c1.72,1.43.13,6.15,1.57,7.85-2.23-1.7-5.9-2-7.85-3.92C110.31,153.91,112.74,152.95,113.87,150.67Z" style="fill:#ca9e2e"/><path d="M113.87,146.75c-2.43,2.8-5.17,5.3-10.2,5.49-5.07-2.79-8.9-6.8-10.2-13.34C99.24,142.54,105.47,145.74,113.87,146.75Z" style="fill:#ca9e2e"/></svg>